<mxfile host="65bd71144e" scale="4" border="0">
    <diagram id="_XF6_Xsw8ZZClXzvhntR" name="Page-1">
        <mxGraphModel dx="758" dy="515" grid="1" gridSize="10" guides="1" tooltips="1" connect="1" arrows="1" fold="1" page="1" pageScale="1" pageWidth="583" pageHeight="827" math="0" shadow="0">
            <root>
                <mxCell id="0"/>
                <mxCell id="1" parent="0"/>
                <mxCell id="3" value="" style="whiteSpace=wrap;html=1;rounded=0;fontFamily=Courier New;" parent="1" vertex="1">
                    <mxGeometry x="260" y="80" width="300" height="20" as="geometry"/>
                </mxCell>
                <mxCell id="4" value="0" style="text;html=1;align=left;verticalAlign=middle;resizable=0;points=[];autosize=1;strokeColor=none;fillColor=none;fontFamily=Courier New;" parent="1" vertex="1">
                    <mxGeometry x="120" y="60" width="20" height="20" as="geometry"/>
                </mxCell>
                <mxCell id="38" style="edgeStyle=none;html=1;fillColor=#d5e8d4;strokeColor=#82b366;dashed=1;dashPattern=1 1;" parent="1" source="5" edge="1">
                    <mxGeometry relative="1" as="geometry">
                        <mxPoint x="330" y="70" as="targetPoint"/>
                    </mxGeometry>
                </mxCell>
                <mxCell id="5" value="i" style="text;html=1;align=left;verticalAlign=middle;resizable=0;points=[];autosize=1;strokeColor=none;fillColor=none;fontFamily=Courier New;" parent="1" vertex="1">
                    <mxGeometry x="260" y="60" width="20" height="20" as="geometry"/>
                </mxCell>
                <mxCell id="6" value="n" style="text;html=1;align=center;verticalAlign=middle;resizable=0;points=[];autosize=1;strokeColor=none;fillColor=none;fontFamily=Courier New;" parent="1" vertex="1">
                    <mxGeometry x="560" y="60" width="20" height="20" as="geometry"/>
                </mxCell>
                <mxCell id="10" value="&lt;font face=&quot;Helvetica&quot;&gt;non triés&lt;/font&gt;" style="text;html=1;align=center;verticalAlign=middle;resizable=0;points=[];autosize=1;strokeColor=none;fillColor=none;fontFamily=Courier New;" parent="1" vertex="1">
                    <mxGeometry x="380" y="80" width="60" height="20" as="geometry"/>
                </mxCell>
                <mxCell id="18" value="" style="group;fillColor=#d5e8d4;strokeColor=#82b366;container=0;" parent="1" vertex="1" connectable="0">
                    <mxGeometry x="120" y="100" width="140" height="20" as="geometry"/>
                </mxCell>
                <mxCell id="2" value="" style="rounded=0;whiteSpace=wrap;html=1;fontFamily=Courier New;fillColor=#d5e8d4;strokeColor=#000000;sketch=1;shadow=0;glass=0;" parent="1" vertex="1">
                    <mxGeometry x="120" y="80" width="140" height="20" as="geometry"/>
                </mxCell>
                <mxCell id="19" value="&lt;font face=&quot;Helvetica&quot; style=&quot;font-size: 14px&quot;&gt;Tri sélection&lt;/font&gt;" style="text;html=1;align=left;verticalAlign=middle;resizable=0;points=[];autosize=1;strokeColor=none;fillColor=none;fontSize=14;fontFamily=Courier New;fontStyle=1" parent="1" vertex="1">
                    <mxGeometry x="121" y="40" width="100" height="20" as="geometry"/>
                </mxCell>
                <mxCell id="8" value="&lt;font face=&quot;Helvetica&quot; style=&quot;font-size: 9px&quot;&gt;et tous inférieurs aux &quot;non triés&quot;&lt;/font&gt;" style="text;html=1;align=center;verticalAlign=middle;resizable=0;points=[];autosize=1;strokeColor=none;fillColor=none;fontFamily=Helvetica;" parent="1" vertex="1">
                    <mxGeometry x="120" y="100" width="140" height="20" as="geometry"/>
                </mxCell>
                <mxCell id="7" value="&lt;font face=&quot;Helvetica&quot;&gt;déjà triés&lt;/font&gt;" style="text;html=1;align=center;verticalAlign=middle;resizable=0;points=[];autosize=1;strokeColor=none;fillColor=none;fontFamily=Courier New;" parent="1" vertex="1">
                    <mxGeometry x="160" y="80" width="60" height="20" as="geometry"/>
                </mxCell>
            </root>
        </mxGraphModel>
    </diagram>
</mxfile>